<?xml version="1.0" encoding="UTF-8"?>
<svg version="1.1"
    xmlns="http://www.w3.org/2000/svg"
    width="64"
    height="64">
    <path d="M0 0 C21.12 0 42.24 0 64 0 C64 21.12 64 42.24 64 64 C42.88 64 21.76 64 0 64 C0 42.88 0 21.76 0 0 Z "
        fill="#080807"
        transform="translate(0,0)"/>
    <path d="M0 0 C3.01526755 1.40133713 5.54751454 3.05786373 8.1875 5.07421875 C8.96867187 5.65880859 9.74984375 6.24339844 10.5546875 6.84570312 C12.19054457 8.07782231 13.82074762 9.3174828 15.4453125 10.56445312 C16.22648437 11.14517578 17.00765625 11.72589844 17.8125 12.32421875 C18.87404297 13.1299231 18.87404297 13.1299231 19.95703125 13.9519043 C21.9215557 15.1883862 21.9215557 15.1883862 24.03442383 14.82373047 C26.16532173 13.93071724 27.79575245 12.89143813 29.63671875 11.49609375 C30.29607422 11.00302734 30.95542969 10.50996094 31.63476562 10.00195312 C32.31216797 9.48568359 32.98957031 8.96941406 33.6875 8.4375 C35.04408897 7.41339589 36.4020856 6.39115284 37.76171875 5.37109375 C38.35944092 4.91661865 38.95716309 4.46214355 39.57299805 3.99389648 C41 3 41 3 42 3 C43.05375122 10.52679441 43.05375122 10.52679441 40.79296875 13.6875 C38.9438148 15.28115024 37.02304584 16.63336797 35 18 C33.75476562 18.96873047 33.75476562 18.96873047 32.484375 19.95703125 C25.86915373 24.97786535 25.86915373 24.97786535 22.69921875 25.05859375 C18.5918423 23.44774134 15.39330052 20.83009042 11.9375 18.125 C11.23044922 17.58230469 10.52339844 17.03960937 9.79492188 16.48046875 C8.47468292 15.46642606 7.15720122 14.44877527 5.84350586 13.42626953 C4.51991923 12.40224713 3.16512686 11.41809074 1.79223633 10.46118164 C0 9 0 9 -0.390625 6.73828125 C-0.34421875 5.93777344 -0.2978125 5.13726562 -0.25 4.3125 C-0.21390625 3.50425781 -0.1778125 2.69601563 -0.140625 1.86328125 C-0.09421875 1.24839844 -0.0478125 0.63351563 0 0 Z "
        fill="#F2D907"
        transform="translate(11,23)"/>
    <path d="M0 0 C0.33 1.65 0.66 3.3 1 5 C-0.06893218 6.03590338 -1.15578488 7.05333942 -2.25 8.0625 C-2.85328125 8.63097656 -3.4565625 9.19945312 -4.078125 9.78515625 C-6 11 -6 11 -8.0625 10.7734375 C-10.58877552 9.76496461 -12.76611458 8.55130932 -15 7 C-15 6.34 -15 5.68 -15 5 C-9.78618192 0.43790918 -6.87149338 -0.60276258 0 0 Z "
        fill="#F2DA07"
        transform="translate(42,17)"/>
</svg>
